<?xml version="1.0" encoding="UTF-8" standalone="no"?>
<!-- Created with Inkscape (http://www.inkscape.org/) -->

<svg
   width="16"
   height="16"
   viewBox="0 0 4.2333331 4.2333331"
   version="1.1"
   id="svg1"
   inkscape:version="1.3 (0e150ed6c4, 2023-07-21)"
   sodipodi:docname="search.svg"
   inkscape:export-filename="search.png"
   inkscape:export-xdpi="96"
   inkscape:export-ydpi="96"
   xmlns:inkscape="http://www.inkscape.org/namespaces/inkscape"
   xmlns:sodipodi="http://sodipodi.sourceforge.net/DTD/sodipodi-0.dtd"
   xmlns="http://www.w3.org/2000/svg"
   xmlns:svg="http://www.w3.org/2000/svg">
  <sodipodi:namedview
     id="namedview1"
     pagecolor="#ffffff"
     bordercolor="#000000"
     borderopacity="0.25"
     inkscape:showpageshadow="2"
     inkscape:pageopacity="0.0"
     inkscape:pagecheckerboard="0"
     inkscape:deskcolor="#d1d1d1"
     inkscape:document-units="mm"
     inkscape:zoom="16.509158"
     inkscape:cx="6.2086754"
     inkscape:cy="8.752718"
     inkscape:window-width="1916"
     inkscape:window-height="1025"
     inkscape:window-x="0"
     inkscape:window-y="24"
     inkscape:window-maximized="1"
     inkscape:current-layer="layer1" />
  <defs
     id="defs1" />
  <g
     inkscape:label="Layer 1"
     inkscape:groupmode="layer"
     id="layer1">
    <path
       id="path1"
       style="fill:#1a1a1a;stroke:none;stroke-width:0.0069174;paint-order:markers fill stroke"
       d="m 0.90510189,0.90510465 a 1.2835519,1.2835614 0 0 0 4.68e-5,1.81525995 1.2835519,1.2835614 0 0 0 1.66834961,0.1253699 L 3.375334,3.6475763 c 0.075422,0.075423 0.1968438,0.075469 0.272266,4.68e-5 0.075422,-0.075423 0.075422,-0.196892 0,-0.2723148 L 2.8457642,2.5734667 A 1.2835519,1.2835614 0 0 0 2.7203483,0.90515145 1.2835519,1.2835614 0 0 0 0.90510189,0.90510465 Z M 1.1774147,1.1774195 a 0.8984863,0.898493 0 0 1 1.2706677,-1e-7 0.8984863,0.898493 0 0 1 -4.68e-5,1.2706305 0.8984863,0.898493 0 0 1 -1.270621,4.69e-5 0.8984863,0.898493 0 0 1 10e-8,-1.2706773 z" />
  </g>
</svg>
